:SAMPLES-PER-SECOND 30
:FULLY-SPECIFIED
:DEGREES
1008
root  45.5676 39.3973 51.6645 179.98 -0.94751 177.805
RightUpLeg  -19.5944 -20.178 -3.60084
RightLeg  18.3399 -0.875894 0.265463
RightFoot  1.45114 0.010373 -0.00490498
RightToes  5.82063e-011 0 -3.6325e-017
Spine  49.166 -2.21116 4.42461
Spine1  13.8109 0.163221 -1.42829
HEad  -29.2315 -4.75237 -0.224407
LeftShoulder1  12.2934 -22.5099 -40.8529
LeftArm  -10.3696 -36.2552 -28.6266
LeftForeArm  37.3201 -10.5111 -6.74142
LeftHand  -0.244104 0.0205437 5.32207
RightShoulder  7.46579 15.2813 33.724
RightArm  -11.9033 37.2358 24.9025
RightForeArm  -0.0251983 8.32657 8.54601
RightHand  -1.9444 6.4488 -19.2038
LeftUpLeg  -17.4998 18.887 -2.42976
LeftLeg  17.6621 4.75425 1.9694
LeftFoot  -1.05966 -0.0696244 0.84508
LeftToes  1.45487e-011 -6.19069e-011 1.65092e-011
1009
root  45.5185 39.4784 51.4153 178.469 -1.10109 177.621
RightUpLeg  -17.2741 -19.6554 -4.69395
RightLeg  18.299 -1.51752 0.0483808
RightFoot  0.793257 0.00682058 -0.0128136
RightToes  5.82063e-011 0 -3.6325e-017
Spine  45.9347 -0.397745 3.06115
Spine1  15.4015 -0.0211738 2.69336
HEad  -27.5497 -6.80995 -4.02407
LeftShoulder1  13.1488 -21.8968 -45.0416
LeftArm  -8.86395 -31.7972 -27.6177
LeftForeArm  36.9891 -9.11943 -7.47743
LeftHand  -0.244104 0.0205437 5.32207
RightShoulder  6.70186 14.5849 31.0757
RightArm  -11.1453 31.1762 27.0703
RightForeArm  -0.1424 9.09863 8.13943
RightHand  -1.748 5.67282 -18.4903
LeftUpLeg  -14.9217 18.6618 -1.90773
LeftLeg  17.0341 4.90877 1.81962
LeftFoot  -1.45289 -0.0443306 0.614822
LeftToes  1.45487e-011 -6.19069e-011 1.65092e-011
1010
root  45.4633 39.5874 51.12 177.366 -1.19832 177.516
RightUpLeg  -15.1262 -18.9942 -5.6141
RightLeg  17.8103 -2.17433 -0.0296331
RightFoot  0.417446 -0.00503673 0.0765672
RightToes  5.82063e-011 0 -3.6325e-017
Spine  43.723 -1.80471 3.48879
Spine1  14.5265 -0.28133 -0.701644
HEad  -25.0622 -5.75903 -4.24507
LeftShoulder1  11.883 -20.7458 -42.5026
LeftArm  -7.81943 -24.6388 -28.6883
LeftForeArm  36.0267 -8.57861 -7.46876
LeftHand  -0.244104 0.0205437 5.32207
RightShoulder  7.48117 14.9005 34.6635
RightArm  -9.9256 25.7137 27.1751
RightForeArm  -0.0853962 9.09474 8.19041
RightHand  -1.56385 4.8926 -17.8107
LeftUpLeg  -12.5572 17.8603 -1.32272
LeftLeg  16.1232 5.72319 1.60401
LeftFoot  -1.6406 -0.0323046 0.498042
LeftToes  1.45487e-011 -6.19069e-011 1.65092e-011
1011
root  45.4163 39.7159 50.7786 176.552 -1.18333 177.546
RightUpLeg  -13.0452 -18.0221 -6.29366
RightLeg  16.8939 -2.91087 0.0196972
RightFoot  0.303358 -0.0107485 0.123923
RightToes  5.82063e-011 0 -3.6325e-017
Spine  40.176 -2.62229 3.8464
Spine1  15.4452 -0.371079 -3.04469
HEad  -23.4454 -4.03187 -4.47004
LeftShoulder1  10.7254 -19.5952 -40.1493
LeftArm  -8.04112 -18.7644 -29.932
LeftForeArm  35.8121 -7.927 -7.13051
LeftHand  -0.244104 0.0205437 5.32207
RightShoulder  7.69943 14.8551 35.9701
RightArm  -10.3912 20.918 28.5801
RightForeArm  1.13134 8.60588 7.83664
RightHand  -1.41729 4.29203 -17.1448
LeftUpLeg  -10.3111 16.5553 -0.54786
LeftLeg  14.9936 7.10633 1.19944
LeftFoot  -1.7256 -0.0315244 0.511976
LeftToes  1.45487e-011 -6.19069e-011 1.65092e-011
1012
root  45.3752 39.8526 50.4078 175.94 -1.04869 177.596
RightUpLeg  -11.0735 -16.7308 -6.85865
RightLeg  15.7404 -3.90422 0.152302
RightFoot  0.347832 -0.0082497 0.103477
RightToes  5.82063e-011 0 -3.6325e-017
Spine  36.8754 -2.04662 4.47442
Spine1  14.9879 0.756212 -4.17273
HEad  -20.8926 -3.78259 -3.49784
LeftShoulder1  11.0859 -20.1721 -40.4936
LeftArm  -7.93187 -12.7837 -29.3045
LeftForeArm  36.1525 -7.02138 -6.98677
LeftHand  -0.244104 0.0205437 5.32207
RightShoulder  7.67095 13.5188 38.9437
RightArm  -9.86071 14.7677 27.1432
RightForeArm  1.05991 9.63959 7.64377
RightHand  -1.25471 3.64151 -16.2867
LeftUpLeg  -8.10355 14.9022 0.27641
LeftLeg  13.596 8.89998 0.551422
LeftFoot  -1.74892 -0.0308547 0.508109
LeftToes  1.45487e-011 -6.19069e-011 1.65092e-011
1013
root  45.3254 39.9931 50.0205 175.543 -0.928375 177.626
RightUpLeg  -9.24583 -15.4176 -7.41678
RightLeg  14.4095 -5.05507 0.433418
RightFoot  0.54783 -0.0158532 0.188173
RightToes  5.82063e-011 0 -3.6325e-017
Spine  33.8226 -0.946758 3.20353
Spine1  14.3258 0.557118 -1.66201
HEad  -18.2395 -3.99539 -4.50721
LeftShoulder1  11.7317 -19.2695 -44.8699
LeftArm  -6.75221 -7.53478 -25.5961
LeftForeArm  35.0558 -7.71268 -7.21544
LeftHand  -0.244104 0.0205437 5.32207
RightShoulder  7.31417 13.1959 37.7488
RightArm  -9.82678 8.52961 28.1076
RightForeArm  1.14392 10.6201 7.23031
RightHand  -1.14989 3.14237 -15.8003
LeftUpLeg  -6.02216 12.8031 0.970478
LeftLeg  11.931 11.1255 -0.264317
LeftFoot  -1.66193 -0.0283141 0.460411
LeftToes  1.45487e-011 -6.19069e-011 1.65092e-011
1014
root  45.258 40.1316 49.6241 175.249 -1.02122 177.615
RightUpLeg  -7.39567 -14.327 -8.09833
RightLeg  12.9271 -6.17202 0.908899
RightFoot  0.792167 -0.0419316 0.445105
RightToes  5.82063e-011 0 -3.6325e-017
Spine  31.1095 -0.316271 2.15193
Spine1  12.981 0.286665 0.00938625
HEad  -15.558 -4.08625 -5.39593
LeftShoulder1  11.9687 -18.4066 -47.6578
LeftArm  -5.55637 -1.87746 -22.8176
LeftForeArm  33.804 -9.16685 -7.17312
LeftHand  -0.244104 0.0205437 5.32207
RightShoulder  6.97934 12.7381 36.9714
RightArm  -9.23638 2.32679 28.99
RightForeArm  -0.0152166 12.1817 6.8791
RightHand  -1.08985 2.71738 -15.7476
LeftUpLeg  -4.03484 10.2508 1.37582
LeftLeg  10.0281 13.6071 -1.12808
LeftFoot  -1.42315 -0.0309906 0.483796
LeftToes  1.45487e-011 -6.19069e-011 1.65092e-011
